<svg width="83" height="18" viewBox="0 0 83 18" fill="none" xmlns="http://www.w3.org/2000/svg">
<path d="M5.51981 2.66697C5.93981 2.67975 6.34647 2.75308 6.74047 2.88708H6.77981C6.80647 2.89975 6.82647 2.91375 6.83981 2.92641C6.98714 2.97375 7.12647 3.02708 7.25981 3.10041L7.51314 3.21375C7.61314 3.26708 7.73314 3.36641 7.79981 3.40708C7.86647 3.44641 7.93981 3.48708 7.99981 3.53308C8.74047 2.96708 9.63981 2.66041 10.5665 2.66697C10.9871 2.66697 11.4071 2.72641 11.8065 2.86041C14.2671 3.66041 15.1538 6.36041 14.4131 8.72041C13.9931 9.92641 13.3065 11.0271 12.4071 11.9264C11.1198 13.1731 9.70714 14.2797 8.18647 15.2331L8.01981 15.3337L7.84647 15.2264C6.32047 14.2797 4.89981 13.1731 3.60047 11.9197C2.70714 11.0204 2.01981 9.92641 1.59314 8.72041C0.839808 6.36041 1.72647 3.66041 4.21381 2.84641C4.40714 2.77975 4.60647 2.73308 4.80647 2.70708H4.88647C5.07381 2.67975 5.25981 2.66697 5.44647 2.66697H5.51981ZM11.4598 4.77375C11.1865 4.67975 10.8865 4.82708 10.7865 5.10708C10.6931 5.38708 10.8398 5.69375 11.1198 5.79308C11.5471 5.95308 11.8331 6.37375 11.8331 6.83975V6.86041C11.8205 7.01308 11.8665 7.16041 11.9598 7.27375C12.0531 7.38708 12.1931 7.45308 12.3398 7.46708C12.6131 7.45975 12.8465 7.24041 12.8665 6.95975V6.88041C12.8865 5.94641 12.3205 5.10041 11.4598 4.77375Z" fill="white"/>
<path d="M25.246 13.058C25.2927 13.058 25.3393 13.0673 25.386 13.086C25.442 13.1047 25.5073 13.1467 25.582 13.212C25.778 13.4173 26.0113 13.576 26.282 13.688C26.5527 13.7907 26.8607 13.842 27.206 13.842C27.6633 13.842 28.0787 13.7393 28.452 13.534C28.8347 13.3287 29.138 13.044 29.362 12.68C29.586 12.3067 29.698 11.882 29.698 11.406C29.698 10.8647 29.5767 10.4307 29.334 10.104C29.1007 9.768 28.7973 9.52067 28.424 9.362C28.06 9.194 27.6867 9.11 27.304 9.11C27.2013 9.11 27.0987 9.11933 26.996 9.138C26.9027 9.14733 26.814 9.16133 26.73 9.18C26.646 9.19867 26.5807 9.208 26.534 9.208C26.4127 9.208 26.3193 9.17067 26.254 9.096C26.1887 9.012 26.156 8.90933 26.156 8.788C26.156 8.72267 26.17 8.66667 26.198 8.62C26.226 8.564 26.2633 8.50333 26.31 8.438L29.152 5.344L29.32 5.568H25.078C24.966 5.568 24.868 5.53067 24.784 5.456C24.7093 5.372 24.672 5.274 24.672 5.162C24.672 5.05 24.7093 4.95667 24.784 4.882C24.868 4.80733 24.966 4.77 25.078 4.77H29.782C29.9407 4.77 30.0527 4.82133 30.118 4.924C30.1833 5.01733 30.216 5.11067 30.216 5.204C30.216 5.26 30.202 5.316 30.174 5.372C30.146 5.41867 30.1087 5.47 30.062 5.526L27.22 8.62L26.912 8.438C26.94 8.41 27.0333 8.382 27.192 8.354C27.36 8.31667 27.4907 8.298 27.584 8.298C28.0973 8.298 28.578 8.41933 29.026 8.662C29.4833 8.90467 29.852 9.25467 30.132 9.712C30.4213 10.16 30.566 10.7153 30.566 11.378C30.566 12.0313 30.412 12.6053 30.104 13.1C29.796 13.5853 29.3807 13.9633 28.858 14.234C28.3353 14.5047 27.7567 14.64 27.122 14.64C26.7393 14.64 26.3613 14.5747 25.988 14.444C25.6147 14.3133 25.288 14.1173 25.008 13.856C24.9427 13.8 24.896 13.744 24.868 13.688C24.84 13.632 24.826 13.576 24.826 13.52C24.826 13.408 24.8633 13.3053 24.938 13.212C25.022 13.1093 25.1247 13.058 25.246 13.058ZM32.5878 13.058C32.6345 13.058 32.6811 13.0673 32.7278 13.086C32.7838 13.1047 32.8491 13.1467 32.9238 13.212C33.1198 13.4173 33.3531 13.576 33.6238 13.688C33.8945 13.7907 34.2025 13.842 34.5478 13.842C35.0051 13.842 35.4205 13.7393 35.7938 13.534C36.1765 13.3287 36.4798 13.044 36.7038 12.68C36.9278 12.3067 37.0398 11.882 37.0398 11.406C37.0398 10.8647 36.9185 10.4307 36.6758 10.104C36.4425 9.768 36.1391 9.52067 35.7658 9.362C35.4018 9.194 35.0285 9.11 34.6458 9.11C34.5431 9.11 34.4405 9.11933 34.3378 9.138C34.2445 9.14733 34.1558 9.16133 34.0718 9.18C33.9878 9.19867 33.9225 9.208 33.8758 9.208C33.7545 9.208 33.6611 9.17067 33.5958 9.096C33.5305 9.012 33.4978 8.90933 33.4978 8.788C33.4978 8.72267 33.5118 8.66667 33.5398 8.62C33.5678 8.564 33.6051 8.50333 33.6518 8.438L36.4938 5.344L36.6618 5.568H32.4198C32.3078 5.568 32.2098 5.53067 32.1258 5.456C32.0511 5.372 32.0138 5.274 32.0138 5.162C32.0138 5.05 32.0511 4.95667 32.1258 4.882C32.2098 4.80733 32.3078 4.77 32.4198 4.77H37.1238C37.2825 4.77 37.3945 4.82133 37.4598 4.924C37.5251 5.01733 37.5578 5.11067 37.5578 5.204C37.5578 5.26 37.5438 5.316 37.5158 5.372C37.4878 5.41867 37.4505 5.47 37.4038 5.526L34.5618 8.62L34.2538 8.438C34.2818 8.41 34.3751 8.382 34.5338 8.354C34.7018 8.31667 34.8325 8.298 34.9258 8.298C35.4391 8.298 35.9198 8.41933 36.3678 8.662C36.8251 8.90467 37.1938 9.25467 37.4738 9.712C37.7631 10.16 37.9078 10.7153 37.9078 11.378C37.9078 12.0313 37.7538 12.6053 37.4458 13.1C37.1378 13.5853 36.7225 13.9633 36.1998 14.234C35.6771 14.5047 35.0985 14.64 34.4638 14.64C34.0811 14.64 33.7031 14.5747 33.3298 14.444C32.9565 14.3133 32.6298 14.1173 32.3498 13.856C32.2845 13.8 32.2378 13.744 32.2098 13.688C32.1818 13.632 32.1678 13.576 32.1678 13.52C32.1678 13.408 32.2051 13.3053 32.2798 13.212C32.3638 13.1093 32.4665 13.058 32.5878 13.058ZM40.2936 14.5C40.1723 14.5 40.0696 14.458 39.9856 14.374C39.9109 14.29 39.8736 14.192 39.8736 14.08V4.56C39.8736 4.448 39.9109 4.35 39.9856 4.266C40.0696 4.182 40.1723 4.14 40.2936 4.14C40.4149 4.14 40.5129 4.182 40.5876 4.266C40.6716 4.35 40.7136 4.448 40.7136 4.56V14.08C40.7136 14.192 40.6716 14.29 40.5876 14.374C40.5129 14.458 40.4149 14.5 40.2936 14.5ZM45.0536 7.318C45.1563 7.318 45.2496 7.36467 45.3336 7.458C45.4176 7.542 45.4596 7.63533 45.4596 7.738C45.4596 7.85933 45.4083 7.96667 45.3056 8.06L40.6016 12.064L40.5596 11.07L44.7596 7.458C44.8436 7.36467 44.9416 7.318 45.0536 7.318ZM45.1656 14.5C45.0443 14.5 44.9416 14.4487 44.8576 14.346L41.6656 10.958L42.2956 10.384L45.4596 13.758C45.5436 13.8513 45.5856 13.9587 45.5856 14.08C45.5856 14.2107 45.5343 14.3133 45.4316 14.388C45.3289 14.4627 45.2403 14.5 45.1656 14.5ZM56.7379 13.674C56.8499 13.674 56.9479 13.716 57.0319 13.8C57.1159 13.8747 57.1579 13.968 57.1579 14.08C57.1579 14.2013 57.1159 14.304 57.0319 14.388C56.9479 14.4627 56.8499 14.5 56.7379 14.5H51.7399C51.6186 14.5 51.5159 14.458 51.4319 14.374C51.3572 14.29 51.3199 14.192 51.3199 14.08V5.12C51.3199 5.008 51.3619 4.91 51.4459 4.826C51.5299 4.742 51.6372 4.7 51.7679 4.7C51.8799 4.7 51.9779 4.742 52.0619 4.826C52.1552 4.91 52.2019 5.008 52.2019 5.12V13.912L51.9359 13.674H56.7379ZM59.3731 14.08C59.3731 14.192 59.3311 14.29 59.2471 14.374C59.1631 14.458 59.0651 14.5 58.9531 14.5C58.8317 14.5 58.7291 14.458 58.6451 14.374C58.5704 14.29 58.5331 14.192 58.5331 14.08V7.64C58.5331 7.528 58.5704 7.43 58.6451 7.346C58.7291 7.262 58.8317 7.22 58.9531 7.22C59.0744 7.22 59.1724 7.262 59.2471 7.346C59.3311 7.43 59.3731 7.528 59.3731 7.64V14.08ZM58.9531 6.282C58.7571 6.282 58.6077 6.24 58.5051 6.156C58.4117 6.06267 58.3651 5.932 58.3651 5.764V5.624C58.3651 5.456 58.4164 5.33 58.5191 5.246C58.6311 5.15267 58.7804 5.106 58.9671 5.106C59.1444 5.106 59.2797 5.15267 59.3731 5.246C59.4757 5.33 59.5271 5.456 59.5271 5.624V5.764C59.5271 5.932 59.4757 6.06267 59.3731 6.156C59.2797 6.24 59.1397 6.282 58.9531 6.282ZM62.0592 14.5C61.9379 14.5 61.8352 14.458 61.7512 14.374C61.6766 14.29 61.6392 14.192 61.6392 14.08V4.56C61.6392 4.448 61.6766 4.35 61.7512 4.266C61.8352 4.182 61.9379 4.14 62.0592 4.14C62.1806 4.14 62.2786 4.182 62.3532 4.266C62.4372 4.35 62.4792 4.448 62.4792 4.56V14.08C62.4792 14.192 62.4372 14.29 62.3532 14.374C62.2786 14.458 62.1806 14.5 62.0592 14.5ZM66.8192 7.318C66.9219 7.318 67.0152 7.36467 67.0992 7.458C67.1832 7.542 67.2252 7.63533 67.2252 7.738C67.2252 7.85933 67.1739 7.96667 67.0712 8.06L62.3672 12.064L62.3252 11.07L66.5252 7.458C66.6092 7.36467 66.7072 7.318 66.8192 7.318ZM66.9312 14.5C66.8099 14.5 66.7072 14.4487 66.6232 14.346L63.4312 10.958L64.0612 10.384L67.2252 13.758C67.3092 13.8513 67.3512 13.9587 67.3512 14.08C67.3512 14.2107 67.2999 14.3133 67.1972 14.388C67.0946 14.4627 67.0059 14.5 66.9312 14.5ZM71.967 14.64C71.2483 14.64 70.6136 14.486 70.063 14.178C69.5123 13.87 69.083 13.4407 68.775 12.89C68.467 12.3393 68.313 11.6953 68.313 10.958C68.313 10.1647 68.467 9.488 68.775 8.928C69.0923 8.368 69.4983 7.93867 69.993 7.64C70.497 7.332 71.029 7.178 71.589 7.178C71.9996 7.178 72.3963 7.25267 72.779 7.402C73.171 7.542 73.5163 7.75667 73.815 8.046C74.123 8.326 74.3656 8.67133 74.543 9.082C74.7296 9.49267 74.8323 9.96867 74.851 10.51C74.8416 10.622 74.795 10.72 74.711 10.804C74.627 10.8787 74.529 10.916 74.417 10.916H68.803L68.635 10.16H74.151L73.969 10.328V10.048C73.9316 9.60933 73.7916 9.236 73.549 8.928C73.3063 8.62 73.0123 8.38667 72.667 8.228C72.3216 8.06933 71.9623 7.99 71.589 7.99C71.309 7.99 71.0196 8.046 70.721 8.158C70.4316 8.27 70.1656 8.44733 69.923 8.69C69.6896 8.92333 69.4983 9.22667 69.349 9.6C69.1996 9.964 69.125 10.398 69.125 10.902C69.125 11.4527 69.237 11.952 69.461 12.4C69.685 12.848 70.007 13.2027 70.427 13.464C70.8563 13.7253 71.365 13.856 71.953 13.856C72.2796 13.856 72.5736 13.8093 72.835 13.716C73.0963 13.6227 73.325 13.5013 73.521 13.352C73.717 13.1933 73.8803 13.03 74.011 12.862C74.1136 12.778 74.2163 12.736 74.319 12.736C74.4123 12.736 74.4916 12.7733 74.557 12.848C74.6316 12.9227 74.669 13.0067 74.669 13.1C74.669 13.212 74.6223 13.31 74.529 13.394C74.249 13.73 73.885 14.024 73.437 14.276C72.989 14.5187 72.499 14.64 71.967 14.64ZM76.243 13.366C76.1683 13.254 76.131 13.1467 76.131 13.044C76.1403 12.932 76.201 12.8433 76.313 12.778C76.3876 12.7127 76.4716 12.6847 76.565 12.694C76.6676 12.7033 76.761 12.75 76.845 12.834C77.097 13.1607 77.4003 13.4267 77.755 13.632C78.119 13.828 78.5483 13.926 79.043 13.926C79.3043 13.926 79.561 13.884 79.813 13.8C80.0743 13.7067 80.289 13.5713 80.457 13.394C80.625 13.2073 80.709 12.974 80.709 12.694C80.709 12.4047 80.625 12.1713 80.457 11.994C80.289 11.8167 80.0696 11.6767 79.799 11.574C79.5376 11.4713 79.2576 11.3827 78.959 11.308C78.6416 11.224 78.3336 11.1307 78.035 11.028C77.7363 10.916 77.4703 10.7807 77.237 10.622C77.013 10.454 76.831 10.2533 76.691 10.02C76.551 9.78667 76.481 9.502 76.481 9.166C76.481 8.774 76.5883 8.42867 76.803 8.13C77.0176 7.83133 77.307 7.598 77.671 7.43C78.0443 7.262 78.4643 7.178 78.931 7.178C79.1643 7.178 79.4163 7.21067 79.687 7.276C79.9576 7.332 80.2236 7.43 80.485 7.57C80.7463 7.71 80.9796 7.90133 81.185 8.144C81.269 8.228 81.311 8.326 81.311 8.438C81.311 8.54067 81.2643 8.634 81.171 8.718C81.0963 8.774 81.0076 8.802 80.905 8.802C80.8116 8.802 80.7323 8.76467 80.667 8.69C80.443 8.438 80.177 8.24667 79.869 8.116C79.561 7.98533 79.2296 7.92 78.875 7.92C78.6043 7.92 78.3476 7.96667 78.105 8.06C77.8716 8.144 77.6756 8.27467 77.517 8.452C77.3583 8.62933 77.279 8.86267 77.279 9.152C77.2976 9.42267 77.391 9.642 77.559 9.81C77.7363 9.978 77.965 10.118 78.245 10.23C78.5343 10.342 78.8563 10.4447 79.211 10.538C79.5096 10.6127 79.7943 10.7013 80.065 10.804C80.345 10.9067 80.5876 11.0373 80.793 11.196C81.0076 11.3453 81.1756 11.5367 81.297 11.77C81.4276 12.0033 81.493 12.2973 81.493 12.652C81.493 13.0627 81.3763 13.4173 81.143 13.716C80.919 14.0147 80.6156 14.2433 80.233 14.402C79.8503 14.5607 79.4256 14.64 78.959 14.64C78.455 14.64 77.965 14.542 77.489 14.346C77.0223 14.15 76.607 13.8233 76.243 13.366Z" fill="white"/>
</svg>
